<svg width="480" height="480" version="1.1" xmlns="http://www.w3.org/2000/svg" desc="Created with imagetracer.js version 1.2.6" ><path fill="rgb(24,26,27)" stroke="rgb(24,26,27)" stroke-width="1" opacity="1" d="M 0 0 L 480 0 L 480 480 L 0 480 L 0 0 Z M 238 42 L 229 60 L 119 247 L 239 322 L 248 318 L 348 254 L 359 248 L 354 237 L 242 45 L 238 42 Z M 359 268 L 240 343 L 121 269 L 240 441 L 359 270 L 359 268 Z " /><path fill="rgb(24,26,27)" stroke="rgb(24,26,27)" stroke-width="1" opacity="1" d="M 220.5 109 L 221 189.5 L 151.5 229 L 151 227.5 L 220.5 109 Z " /><path fill="rgb(24,26,27)" stroke="rgb(24,26,27)" stroke-width="1" opacity="1" d="M 258.5 109 L 327 227.5 L 325.5 228 L 258 190 L 258.5 109 Z " /><path fill="rgb(24,26,27)" stroke="rgb(24,26,27)" stroke-width="1" opacity="1" d="M 220.5 210 L 221 289.5 L 218.5 288 L 155 249 L 156.5 246 L 220.5 210 Z " /><path fill="rgb(24,26,27)" stroke="rgb(24,26,27)" stroke-width="1" opacity="1" d="M 258 211 L 323 247 L 321.5 250 L 258 289 L 258 211 Z " /><path fill="rgb(24,26,27)" stroke="rgb(24,26,27)" stroke-width="1" opacity="1" d="M 185.5 330 Q 195.8 339 209 344 Q 207.9 346.7 210.5 346 L 221 352 L 220.5 382 L 186 332.5 L 185.5 330 Z " /><path fill="rgb(24,26,27)" stroke="rgb(24,26,27)" stroke-width="1" opacity="1" d="M 292.5 331 L 294 331.5 L 265 371.5 L 258.5 383 L 258 352 L 266.5 348 L 292.5 331 Z " /><path fill="rgb(5,189,198)" stroke="rgb(5,189,198)" stroke-width="1" opacity="1" d="M 239.5 42 L 290 129.5 L 293 132.5 L 294 136.5 L 308 158.5 L 317 176 L 314.5 175 L 313 178.5 L 313.5 180 L 310 180.5 Q 312.3 181.8 309.5 183 Q 307.8 180.3 306 184.5 L 306.5 186 Q 302.1 187.5 303 184.5 L 257.5 108 L 257 189.5 L 311 220.5 L 310 223 Q 305.9 221.3 307 225.5 L 305.5 228 L 304 227.5 Q 305.1 230.8 302.5 230 L 299.5 233 L 298.5 232 L 257 210 L 257 233.5 L 256 234.5 L 256.5 236 L 253 237.5 L 253.5 239 L 252.5 238 L 248.5 242 L 247 242.5 L 247.5 244 L 246 243.5 L 246.5 246 L 248 245.5 L 245.5 247 L 244 246.5 L 241.5 250 L 239 250 Q 240.5 253.7 237.5 253 L 235.5 257 L 231 258 L 231 260 Q 228.3 258.9 229 261.5 L 226.5 267 L 224 265.5 L 222.5 268 L 222 210 L 215.5 212 L 210.5 216 L 154 247 Q 152.9 249.7 155.5 249 L 203.5 280 L 207 281 Q 208.5 284.7 205.5 284 L 204.5 287 Q 202.3 286.3 203 288.5 L 201.5 292 L 201 290 L 198 291.5 Q 200.3 292.8 197.5 294 L 195.5 294 L 120 246.5 L 239.5 42 Z M 220 108 L 217 116 L 204 136 L 150 230 L 214 195 L 219 191 L 221 191 L 222 189 L 222 109 L 220 108 Z " /><path fill="rgb(5,189,198)" stroke="rgb(5,189,198)" stroke-width="1" opacity="1" d="M 304.5 187 L 305.5 189 L 304.5 187 Z " /><path fill="rgb(5,189,198)" stroke="rgb(5,189,198)" stroke-width="1" opacity="1" d="M 121.5 269 L 182 307.5 L 181.5 311 L 180.5 309 Q 177.8 310.3 180 311.5 L 180 313 L 177 313 Q 178.5 316.7 175.5 316 L 175.5 318 L 171 319.5 L 172.5 322 L 169 321 L 167.5 324 L 165.5 323 L 164 326.5 L 165 331.5 L 163 330.5 L 122 271.5 L 121.5 269 Z " /><path fill="rgb(5,189,198)" stroke="rgb(5,189,198)" stroke-width="1" opacity="1" d="M 183 328 L 185 328.5 L 183 329.5 L 183 328 Z " /><path fill="rgb(5,158,204)" stroke="rgb(5,158,204)" stroke-width="1" opacity="1" d="M 240.5 43 L 241.5 45 L 240.5 43 Z " /><path fill="rgb(5,158,204)" stroke="rgb(5,158,204)" stroke-width="1" opacity="1" d="M 230.5 56 L 230 57.5 L 229.5 59 L 229 57.5 L 230.5 56 Z " /><path fill="rgb(5,158,204)" stroke="rgb(5,158,204)" stroke-width="1" opacity="1" d="M 253.5 65 L 256 68.5 L 254 67.5 L 253.5 65 Z " /><path fill="rgb(5,158,204)" stroke="rgb(5,158,204)" stroke-width="1" opacity="1" d="M 258.5 74 L 259.5 76 L 258.5 74 Z " /><path fill="rgb(5,158,204)" stroke="rgb(5,158,204)" stroke-width="1" opacity="1" d="M 260.5 77 L 261.5 79 L 260.5 77 Z " /><path fill="rgb(5,158,204)" stroke="rgb(5,158,204)" stroke-width="1" opacity="1" d="M 268.5 91 L 271 94.5 L 269 93.5 L 268.5 91 Z " /><path fill="rgb(5,158,204)" stroke="rgb(5,158,204)" stroke-width="1" opacity="1" d="M 204.5 101 L 203.5 103 L 204.5 101 Z " /><path fill="rgb(5,158,204)" stroke="rgb(5,158,204)" stroke-width="1" opacity="1" d="M 220.5 108 L 222 108.5 L 222 188.5 L 221 188.5 L 221 109.5 L 220.5 108 Z " /><path fill="rgb(5,158,204)" stroke="rgb(5,158,204)" stroke-width="1" opacity="1" d="M 257.5 108 L 258 190 L 261 191.5 L 259.5 191 L 257 189.5 L 257.5 108 Z " /><path fill="rgb(5,158,204)" stroke="rgb(5,158,204)" stroke-width="1" opacity="1" d="M 280.5 112 L 282.5 115 L 280.5 112 Z " /><path fill="rgb(5,158,204)" stroke="rgb(5,158,204)" stroke-width="1" opacity="1" d="M 262.5 116 L 263.5 118 L 262.5 116 Z " /><path fill="rgb(5,158,204)" stroke="rgb(5,158,204)" stroke-width="1" opacity="1" d="M 283.5 117 L 284.5 119 L 283.5 117 Z " /><path fill="rgb(5,158,204)" stroke="rgb(5,158,204)" stroke-width="1" opacity="1" d="M 288.5 125 L 290 127.5 L 289 127.5 L 288.5 125 Z " /><path fill="rgb(5,158,204)" stroke="rgb(5,158,204)" stroke-width="1" opacity="1" d="M 269.5 128 L 272 131.5 L 270 130.5 L 269.5 128 Z " /><path fill="rgb(5,158,204)" stroke="rgb(5,158,204)" stroke-width="1" opacity="1" d="M 290.5 129 L 291.5 131 L 290.5 129 Z " /><path fill="rgb(5,158,204)" stroke="rgb(5,158,204)" stroke-width="1" opacity="1" d="M 205.5 134 L 204.5 136 L 205.5 134 Z " /><path fill="rgb(5,158,204)" stroke="rgb(5,158,204)" stroke-width="1" opacity="1" d="M 293.5 134 L 296 137.5 L 294 136.5 L 293.5 134 Z " /><path fill="rgb(5,158,204)" stroke="rgb(5,158,204)" stroke-width="1" opacity="1" d="M 183.5 137 L 182.5 139 L 183.5 137 Z " /><path fill="rgb(5,158,204)" stroke="rgb(5,158,204)" stroke-width="1" opacity="1" d="M 275.5 138 L 277 140.5 L 276 140.5 L 275.5 138 Z " /><path fill="rgb(5,158,204)" stroke="rgb(5,158,204)" stroke-width="1" opacity="1" d="M 277.5 142 L 278.5 144 L 277.5 142 Z " /><path fill="rgb(5,158,204)" stroke="rgb(5,158,204)" stroke-width="1" opacity="1" d="M 280.5 147 L 281.5 149 L 280.5 147 Z " /><path fill="rgb(5,158,204)" stroke="rgb(5,158,204)" stroke-width="1" opacity="1" d="M 283.5 152 L 284.5 154 L 283.5 152 Z " /><path fill="rgb(5,158,204)" stroke="rgb(5,158,204)" stroke-width="1" opacity="1" d="M 194.5 153 L 193.5 155 L 194.5 153 Z " /><path fill="rgb(5,158,204)" stroke="rgb(5,158,204)" stroke-width="1" opacity="1" d="M 304.5 153 L 305.5 155 L 304.5 153 Z " /><path fill="rgb(5,158,204)" stroke="rgb(5,158,204)" stroke-width="1" opacity="1" d="M 170.5 159 L 170 160.5 L 169.5 162 L 169 160.5 L 170.5 159 Z " /><path fill="rgb(5,158,204)" stroke="rgb(5,158,204)" stroke-width="1" opacity="1" d="M 308.5 159 L 310 161.5 L 308 160.5 L 308.5 159 Z " /><path fill="rgb(5,158,204)" stroke="rgb(5,158,204)" stroke-width="1" opacity="1" d="M 289.5 162 L 293 167.5 L 291 166.5 L 289.5 162 Z " /><path fill="rgb(5,158,204)" stroke="rgb(5,158,204)" stroke-width="1" opacity="1" d="M 184.5 170 L 183.5 172 L 184.5 170 Z " /><path fill="rgb(5,158,204)" stroke="rgb(5,158,204)" stroke-width="1" opacity="1" d="M 162.5 173 L 161.5 175 L 162.5 173 Z " /><path fill="rgb(5,158,204)" stroke="rgb(5,158,204)" stroke-width="1" opacity="1" d="M 314.5 175 L 316.5 176 L 318 175.5 L 321 183 L 323 183.5 L 322.5 185 L 325 186.5 L 327 190.5 L 326.5 192 Q 328.8 191.3 328 193.5 L 354 236.5 L 359 248 L 347.5 254 L 247.5 318 L 238.5 322 L 203 299.5 L 202.5 298 L 200.5 298 L 198 296.5 L 197.5 295 Q 196.3 297.2 195 294.5 L 199 292.5 Q 196.8 291.3 199.5 290 Q 201.8 289.3 201 291.5 L 202 291.5 L 203 287 L 205 286.5 Q 202.8 285.3 205.5 284 Q 208.1 284.8 207 281.5 L 209 282.5 L 209.5 284 L 211.5 284 L 214 285.5 Q 213.2 288.1 216.5 287 L 220.5 290 L 221.5 210 L 222.5 268 L 226.5 263 L 228 263.5 L 229 260 Q 232 261 231 258 L 233.5 258 L 236 256.5 L 234 255.5 L 239 253 Q 237.3 248.9 241.5 250 L 241.5 248 Q 242.8 250.3 244 247.5 L 244.5 246 L 246.5 247 L 246 245.5 L 247.5 242 L 254.5 236 L 257 235.5 L 257 233.5 L 257 210.5 L 258.5 210 L 258 211.5 L 258 288.5 L 259.5 289 L 323 248.5 Q 323.8 246.3 321.5 247 L 318.5 244 L 292 229.5 L 293.5 230 L 299.5 233 L 300.5 230 L 302.5 230 Q 305.1 230.8 304 227.5 L 306 227.5 L 307 223 Q 310.8 224.5 310 221.5 L 310.5 220 L 308 218.5 L 309.5 219 L 326.5 228 L 326 226.5 L 310 198.5 L 310.5 197 L 309 196.5 L 309.5 195 L 307 193.5 L 307.5 192 L 305 190.5 L 304 188.5 L 304.5 187 L 303 186.5 L 307 185.5 Q 304.3 183.8 308.5 182 Q 309.7 184.3 311 181.5 L 310.5 180 L 314 179.5 L 313 177.5 L 314.5 175 Z M 227 264 L 225 266 L 227 267 L 227 264 Z " /><path fill="rgb(5,158,204)" stroke="rgb(5,158,204)" stroke-width="1" opacity="1" d="M 297.5 176 L 298.5 178 L 297.5 176 Z " /><path fill="rgb(5,158,204)" stroke="rgb(5,158,204)" stroke-width="1" opacity="1" d="M 300.5 181 L 303 184.5 L 301 183.5 L 300.5 181 Z " /><path fill="rgb(5,158,204)" stroke="rgb(5,158,204)" stroke-width="1" opacity="1" d="M 156.5 183 L 155.5 185 L 156.5 183 Z " /><path fill="rgb(5,158,204)" stroke="rgb(5,158,204)" stroke-width="1" opacity="1" d="M 173.5 189 L 172.5 191 L 173.5 189 Z " /><path fill="rgb(5,158,204)" stroke="rgb(5,158,204)" stroke-width="1" opacity="1" d="M 214.5 193 L 213.5 195 L 211.5 196 L 212.5 194 L 214.5 193 Z " /><path fill="rgb(5,158,204)" stroke="rgb(5,158,204)" stroke-width="1" opacity="1" d="M 264.5 193 L 270 196.5 L 268.5 196 Q 264.5 195.5 264.5 193 Z " /><path fill="rgb(5,158,204)" stroke="rgb(5,158,204)" stroke-width="1" opacity="1" d="M 148.5 197 L 147.5 199 L 148.5 197 Z " /><path fill="rgb(5,158,204)" stroke="rgb(5,158,204)" stroke-width="1" opacity="1" d="M 271.5 197 L 279 201.5 L 277.5 201 Q 271.9 200.2 271.5 197 Z " /><path fill="rgb(5,158,204)" stroke="rgb(5,158,204)" stroke-width="1" opacity="1" d="M 166.5 201 L 165.5 203 L 166.5 201 Z " /><path fill="rgb(5,158,204)" stroke="rgb(5,158,204)" stroke-width="1" opacity="1" d="M 198.5 202 L 197.5 204 L 198.5 202 Z " /><path fill="rgb(5,158,204)" stroke="rgb(5,158,204)" stroke-width="1" opacity="1" d="M 283.5 204 L 286 205.5 L 284.5 205 L 283.5 204 Z " /><path fill="rgb(5,158,204)" stroke="rgb(5,158,204)" stroke-width="1" opacity="1" d="M 163.5 206 L 162.5 208 L 163.5 206 Z " /><path fill="rgb(5,158,204)" stroke="rgb(5,158,204)" stroke-width="1" opacity="1" d="M 289.5 207 L 295 210.5 L 293.5 211 L 289.5 207 Z " /><path fill="rgb(5,158,204)" stroke="rgb(5,158,204)" stroke-width="1" opacity="1" d="M 260.5 211 L 261.5 213 L 260.5 211 Z " /><path fill="rgb(5,158,204)" stroke="rgb(5,158,204)" stroke-width="1" opacity="1" d="M 296.5 211 L 307 217.5 L 305.5 217 L 297.5 213 L 296.5 211 Z " /><path fill="rgb(5,158,204)" stroke="rgb(5,158,204)" stroke-width="1" opacity="1" d="M 215.5 212 L 217 212.5 L 214.5 214 L 215.5 212 Z " /><path fill="rgb(5,158,204)" stroke="rgb(5,158,204)" stroke-width="1" opacity="1" d="M 158.5 214 L 159 215.5 L 157 216.5 L 158.5 214 Z " /><path fill="rgb(5,158,204)" stroke="rgb(5,158,204)" stroke-width="1" opacity="1" d="M 267.5 215 L 272 217.5 L 270.5 218 L 267.5 215 Z " /><path fill="rgb(5,158,204)" stroke="rgb(5,158,204)" stroke-width="1" opacity="1" d="M 135.5 219 L 135 220.5 L 133.5 223 L 134 221.5 L 135.5 219 Z " /><path fill="rgb(5,158,204)" stroke="rgb(5,158,204)" stroke-width="1" opacity="1" d="M 274.5 219 L 282 223.5 L 280.5 223 Q 274.9 222.2 274.5 219 Z " /><path fill="rgb(5,158,204)" stroke="rgb(5,158,204)" stroke-width="1" opacity="1" d="M 285.5 225 L 291 228.5 L 289.5 228 Q 285.5 227.5 285.5 225 Z " /><path fill="rgb(5,158,204)" stroke="rgb(5,158,204)" stroke-width="1" opacity="1" d="M 150.5 228 L 153 228.5 L 150 230 L 150.5 228 Z " /><path fill="rgb(5,158,204)" stroke="rgb(5,158,204)" stroke-width="1" opacity="1" d="M 182.5 231 L 181.5 233 L 178.5 234 L 178.5 233 L 182.5 231 Z " /><path fill="rgb(5,158,204)" stroke="rgb(5,158,204)" stroke-width="1" opacity="1" d="M 173.5 236 L 172.5 238 L 168.5 240 L 169.5 238 L 173.5 236 Z " /><path fill="rgb(5,158,204)" stroke="rgb(5,158,204)" stroke-width="1" opacity="1" d="M 162.5 242 L 161.5 244 L 162.5 242 Z " /><path fill="rgb(5,158,204)" stroke="rgb(5,158,204)" stroke-width="1" opacity="1" d="M 119.5 246 L 120.5 248 L 119.5 246 Z " /><path fill="rgb(5,158,204)" stroke="rgb(5,158,204)" stroke-width="1" opacity="1" d="M 122.5 248 L 123.5 250 L 122.5 248 Z " /><path fill="rgb(5,158,204)" stroke="rgb(5,158,204)" stroke-width="1" opacity="1" d="M 158.5 250 L 159.5 252 L 158.5 250 Z " /><path fill="rgb(5,158,204)" stroke="rgb(5,158,204)" stroke-width="1" opacity="1" d="M 128.5 252 L 129.5 254 L 128.5 252 Z " /><path fill="rgb(5,158,204)" stroke="rgb(5,158,204)" stroke-width="1" opacity="1" d="M 167.5 256 L 168.5 258 L 167.5 256 Z " /><path fill="rgb(5,158,204)" stroke="rgb(5,158,204)" stroke-width="1" opacity="1" d="M 136.5 257 L 140 259.5 L 138.5 259 L 136.5 257 Z " /><path fill="rgb(5,158,204)" stroke="rgb(5,158,204)" stroke-width="1" opacity="1" d="M 144.5 262 L 145.5 264 L 144.5 262 Z " /><path fill="rgb(5,158,204)" stroke="rgb(5,158,204)" stroke-width="1" opacity="1" d="M 178.5 263 L 182 265.5 L 180.5 265 L 178.5 263 Z " /><path fill="rgb(5,158,204)" stroke="rgb(5,158,204)" stroke-width="1" opacity="1" d="M 183.5 266 L 184.5 268 L 183.5 266 Z " /><path fill="rgb(5,158,204)" stroke="rgb(5,158,204)" stroke-width="1" opacity="1" d="M 152.5 267 L 153.5 269 L 152.5 267 Z " /><path fill="rgb(5,158,204)" stroke="rgb(5,158,204)" stroke-width="1" opacity="1" d="M 358.5 268 L 359 269.5 L 239.5 441 L 164 332.5 L 164 330.5 L 165 325.5 Q 162.8 324.3 165.5 323 L 167.5 324 L 169 321 L 172 320.5 L 171.5 319 L 176 317.5 L 175.5 316 L 177 316 L 177 313 Q 180.7 314.5 180 311.5 L 178 311.5 L 181 309.5 L 181.5 311 L 182 307.5 L 181.5 306 L 188 310.5 L 188.5 312 Q 189.8 309.8 191 312.5 L 191.5 314 Q 193 311.5 194.5 315 Q 197.1 314.3 196 317 L 198.5 317 L 204 320.5 Q 203.2 323.1 206.5 322 L 239.5 343 L 358.5 268 Z M 183 328 L 183 330 L 185 329 L 183 328 Z M 187 331 L 185 333 L 187 333 L 221 382 L 221 352 L 211 346 Q 208 347 209 344 Q 196 339 187 331 Z M 293 331 L 267 348 L 258 352 L 259 383 L 265 372 L 294 332 L 293 331 Z " /><path fill="rgb(5,158,204)" stroke="rgb(5,158,204)" stroke-width="1" opacity="1" d="M 122.5 269 L 121.5 271 L 122.5 269 Z " /><path fill="rgb(5,158,204)" stroke="rgb(5,158,204)" stroke-width="1" opacity="1" d="M 188.5 269 L 189.5 271 L 188.5 269 Z " /><path fill="rgb(5,158,204)" stroke="rgb(5,158,204)" stroke-width="1" opacity="1" d="M 191.5 271 L 192.5 273 L 191.5 271 Z " /><path fill="rgb(5,158,204)" stroke="rgb(5,158,204)" stroke-width="1" opacity="1" d="M 160.5 272 L 161.5 274 L 160.5 272 Z " /><path fill="rgb(5,158,204)" stroke="rgb(5,158,204)" stroke-width="1" opacity="1" d="M 123.5 273 L 124.5 275 L 123.5 273 Z " /><path fill="rgb(5,158,204)" stroke="rgb(5,158,204)" stroke-width="1" opacity="1" d="M 194.5 273 L 198 275.5 L 196.5 275 L 194.5 273 Z " /><path fill="rgb(5,158,204)" stroke="rgb(5,158,204)" stroke-width="1" opacity="1" d="M 130.5 274 L 131.5 276 L 130.5 274 Z " /><path fill="rgb(5,158,204)" stroke="rgb(5,158,204)" stroke-width="1" opacity="1" d="M 125.5 276 L 126.5 278 L 125.5 276 Z " /><path fill="rgb(5,158,204)" stroke="rgb(5,158,204)" stroke-width="1" opacity="1" d="M 199.5 276 L 200.5 278 L 199.5 276 Z " /><path fill="rgb(5,158,204)" stroke="rgb(5,158,204)" stroke-width="1" opacity="1" d="M 168.5 277 L 169.5 279 L 168.5 277 Z " /><path fill="rgb(5,158,204)" stroke="rgb(5,158,204)" stroke-width="1" opacity="1" d="M 202.5 278 L 203.5 280 L 202.5 278 Z " /><path fill="rgb(5,158,204)" stroke="rgb(5,158,204)" stroke-width="1" opacity="1" d="M 128.5 280 L 129.5 282 L 128.5 280 Z " /><path fill="rgb(5,158,204)" stroke="rgb(5,158,204)" stroke-width="1" opacity="1" d="M 141.5 281 L 142.5 283 L 141.5 281 Z " /><path fill="rgb(5,158,204)" stroke="rgb(5,158,204)" stroke-width="1" opacity="1" d="M 174.5 281 L 178 283.5 L 176.5 283 L 174.5 281 Z " /><path fill="rgb(5,158,204)" stroke="rgb(5,158,204)" stroke-width="1" opacity="1" d="M 144.5 283 L 148 285.5 L 146.5 285 L 144.5 283 Z " /><path fill="rgb(5,158,204)" stroke="rgb(5,158,204)" stroke-width="1" opacity="1" d="M 179.5 284 L 180.5 286 L 179.5 284 Z " /><path fill="rgb(5,158,204)" stroke="rgb(5,158,204)" stroke-width="1" opacity="1" d="M 132.5 286 L 136 290.5 L 134 289.5 L 132.5 286 Z " /><path fill="rgb(5,158,204)" stroke="rgb(5,158,204)" stroke-width="1" opacity="1" d="M 184.5 287 L 185.5 289 L 184.5 287 Z " /><path fill="rgb(5,158,204)" stroke="rgb(5,158,204)" stroke-width="1" opacity="1" d="M 152.5 288 L 156 290.5 L 154.5 290 L 152.5 288 Z " /><path fill="rgb(5,158,204)" stroke="rgb(5,158,204)" stroke-width="1" opacity="1" d="M 187.5 289 L 188.5 291 L 187.5 289 Z " /><path fill="rgb(5,158,204)" stroke="rgb(5,158,204)" stroke-width="1" opacity="1" d="M 157.5 291 L 158.5 293 L 157.5 291 Z " /><path fill="rgb(5,158,204)" stroke="rgb(5,158,204)" stroke-width="1" opacity="1" d="M 190.5 291 L 194 293.5 L 192.5 293 L 190.5 291 Z " /><path fill="rgb(5,158,204)" stroke="rgb(5,158,204)" stroke-width="1" opacity="1" d="M 137.5 293 L 138.5 295 L 137.5 293 Z " /><path fill="rgb(5,158,204)" stroke="rgb(5,158,204)" stroke-width="1" opacity="1" d="M 160.5 293 L 164 295.5 L 162.5 295 L 160.5 293 Z " /><path fill="rgb(5,158,204)" stroke="rgb(5,158,204)" stroke-width="1" opacity="1" d="M 139.5 296 L 140.5 298 L 139.5 296 Z " /><path fill="rgb(5,158,204)" stroke="rgb(5,158,204)" stroke-width="1" opacity="1" d="M 168.5 298 L 172 300.5 L 170.5 300 L 168.5 298 Z " /><path fill="rgb(5,158,204)" stroke="rgb(5,158,204)" stroke-width="1" opacity="1" d="M 141.5 299 L 142.5 301 L 141.5 299 Z " /><path fill="rgb(5,158,204)" stroke="rgb(5,158,204)" stroke-width="1" opacity="1" d="M 173.5 301 L 174.5 303 L 173.5 301 Z " /><path fill="rgb(5,158,204)" stroke="rgb(5,158,204)" stroke-width="1" opacity="1" d="M 144.5 303 L 145.5 305 L 144.5 303 Z " /><path fill="rgb(5,158,204)" stroke="rgb(5,158,204)" stroke-width="1" opacity="1" d="M 176.5 303 L 177.5 305 L 176.5 303 Z " /><path fill="rgb(5,158,204)" stroke="rgb(5,158,204)" stroke-width="1" opacity="1" d="M 146.5 306 L 147.5 308 L 146.5 306 Z " /><path fill="rgb(5,158,204)" stroke="rgb(5,158,204)" stroke-width="1" opacity="1" d="M 148.5 309 L 149.5 311 L 148.5 309 Z " /><path fill="rgb(5,158,204)" stroke="rgb(5,158,204)" stroke-width="1" opacity="1" d="M 150.5 312 L 151.5 314 L 150.5 312 Z " /><path fill="rgb(5,158,204)" stroke="rgb(5,158,204)" stroke-width="1" opacity="1" d="M 153.5 316 L 154.5 318 L 153.5 316 Z " /><path fill="rgb(5,158,204)" stroke="rgb(5,158,204)" stroke-width="1" opacity="1" d="M 157.5 322 L 161 326.5 L 159 325.5 L 157.5 322 Z " /><path fill="rgb(5,158,204)" stroke="rgb(5,158,204)" stroke-width="1" opacity="1" d="M 161.5 328 L 162.5 330 L 161.5 328 Z " /></svg>
