<?xml version="1.0" encoding="UTF-8"?>
<!DOCTYPE svg PUBLIC "-//W3C//DTD SVG 1.1//EN" "http://www.w3.org/Graphics/SVG/1.1/DTD/svg11.dtd">
<svg xmlns="http://www.w3.org/2000/svg" version="1.1" width="480px" height="480px" style="shape-rendering:geometricPrecision; text-rendering:geometricPrecision; image-rendering:optimizeQuality; fill-rule:evenodd; clip-rule:evenodd" xmlns:xlink="http://www.w3.org/1999/xlink">
<g><path style="opacity:1" fill="#2fd1c4" d="M 238.5,-0.5 C 239.167,-0.5 239.833,-0.5 240.5,-0.5C 244.488,6.80627 248.488,14.1396 252.5,21.5C 251.728,25.1468 249.728,26.3135 246.5,25C 246.833,25.3333 247.167,25.6667 247.5,26C 245.117,26.065 244.45,26.8983 245.5,28.5C 243.833,29.5 242.5,30.8333 241.5,32.5C 240.575,33.6405 239.741,33.6405 239,32.5C 239.195,34.1261 239.195,35.7928 239,37.5C 238.333,34.8333 237.667,34.8333 237,37.5C 236.333,36.8333 235.667,36.1667 235,35.5C 235.453,37.4542 235.62,39.2875 235.5,41C 232.793,42.1277 230.293,43.6277 228,45.5C 227.667,45.1667 227.333,44.8333 227,44.5C 226.287,50.1927 223.454,53.3594 218.5,54C 219.337,55.0113 219.67,56.1779 219.5,57.5C 218.127,57.3433 216.793,57.51 215.5,58C 215.833,58.3333 216.167,58.6667 216.5,59C 215.5,59.3333 214.5,59.6667 213.5,60C 214.451,60.7175 214.617,61.5509 214,62.5C 212.602,61.9491 211.268,61.6158 210,61.5C 209.689,62.7425 210.189,63.7425 211.5,64.5C 210.758,65.2868 209.925,65.9535 209,66.5C 207.951,65.4829 206.784,65.3162 205.5,66C 206.672,66.4186 207.672,67.0853 208.5,68C 206.715,69.1628 204.715,69.8295 202.5,70C 201.366,71.016 201.699,71.6827 203.5,72C 201.606,74.0861 199.773,76.2527 198,78.5C 196.701,78.0338 195.201,78.0338 193.5,78.5C 208.235,52.0314 223.235,25.6981 238.5,-0.5 Z"/></g>
<g><path style="opacity:1" fill="#20cbc6" d="M 252.5,21.5 C 259.416,32.996 266.083,44.6626 272.5,56.5C 269.99,58.6311 267.323,59.7978 264.5,60C 265.167,60.3333 265.833,60.6667 266.5,61C 264.913,61.8624 263.246,62.5291 261.5,63C 262.167,63.3333 262.833,63.6667 263.5,64C 261.651,65.093 259.984,66.4263 258.5,68C 259.167,68.3333 259.833,68.6667 260.5,69C 255.713,69.78 253.213,72.28 253,76.5C 252.667,76.1667 252.333,75.8333 252,75.5C 250.004,77.8272 247.504,79.3272 244.5,80C 245.634,81.016 245.301,81.6827 243.5,82C 244.167,82.3333 244.833,82.6667 245.5,83C 243.021,85.67 240.021,87.17 236.5,87.5C 236.33,88.8221 236.663,89.9887 237.5,91C 235.406,93.3682 232.906,95.2015 230,96.5C 229.383,97.4491 229.549,98.2825 230.5,99C 227.389,99.444 224.723,100.777 222.5,103C 223.517,104.049 223.684,105.216 223,106.5C 221.549,106.264 220.049,106.264 218.5,106.5C 218.832,97.4754 218.498,88.4754 217.5,79.5C 216.702,79.9569 216.369,80.6236 216.5,81.5C 200.668,109.836 184.335,137.836 167.5,165.5C 167.108,163.821 166.608,162.154 166,160.5C 164.16,162.338 162.493,164.338 161,166.5C 159.636,165.742 158.469,166.242 157.5,168C 158.214,169.343 157.88,170.676 156.5,172C 153.062,172.92 150.062,174.587 147.5,177C 147.957,177.414 148.291,177.914 148.5,178.5C 147.753,178.736 146.92,179.07 146,179.5C 144.887,180.76 144.72,181.927 145.5,183C 144.256,183.456 143.423,182.956 143,181.5C 141.354,183.055 141.021,184.721 142,186.5C 140.853,185.542 139.853,185.875 139,187.5C 138.781,188.938 138.281,190.271 137.5,191.5C 137.704,190.471 137.204,189.471 136,188.5C 135.71,190.952 135.044,193.285 134,195.5C 133.692,194.692 133.192,194.025 132.5,193.5C 130.934,196.224 128.601,198.058 125.5,199C 124.542,200.147 124.875,201.147 126.5,202C 126,202.5 125.5,203 125,203.5C 124.28,201.944 123.113,200.944 121.5,200.5C 145.137,159.551 169.137,118.884 193.5,78.5C 195.201,78.0338 196.701,78.0338 198,78.5C 199.773,76.2527 201.606,74.0861 203.5,72C 201.699,71.6827 201.366,71.016 202.5,70C 204.715,69.8295 206.715,69.1628 208.5,68C 207.672,67.0853 206.672,66.4186 205.5,66C 206.784,65.3162 207.951,65.4829 209,66.5C 209.925,65.9535 210.758,65.2868 211.5,64.5C 210.189,63.7425 209.689,62.7425 210,61.5C 211.268,61.6158 212.602,61.9491 214,62.5C 214.617,61.5509 214.451,60.7175 213.5,60C 214.5,59.6667 215.5,59.3333 216.5,59C 216.167,58.6667 215.833,58.3333 215.5,58C 216.793,57.51 218.127,57.3433 219.5,57.5C 219.67,56.1779 219.337,55.0113 218.5,54C 223.454,53.3594 226.287,50.1927 227,44.5C 227.333,44.8333 227.667,45.1667 228,45.5C 230.293,43.6277 232.793,42.1277 235.5,41C 235.62,39.2875 235.453,37.4542 235,35.5C 235.667,36.1667 236.333,36.8333 237,37.5C 237.667,34.8333 238.333,34.8333 239,37.5C 239.195,35.7928 239.195,34.1261 239,32.5C 239.741,33.6405 240.575,33.6405 241.5,32.5C 242.5,30.8333 243.833,29.5 245.5,28.5C 244.45,26.8983 245.117,26.065 247.5,26C 247.167,25.6667 246.833,25.3333 246.5,25C 249.728,26.3135 251.728,25.1468 252.5,21.5 Z"/></g>
<g><path style="opacity:1" fill="#06c4c7" d="M 272.5,56.5 C 278.07,65.2994 283.404,74.2994 288.5,83.5C 288.19,84.7383 287.69,84.7383 287,83.5C 286.781,84.938 286.281,86.2713 285.5,87.5C 284.575,88.6405 283.741,88.6405 283,87.5C 282.517,88.448 282.351,89.448 282.5,90.5C 281.022,90.238 279.689,90.5713 278.5,91.5C 276.969,94.583 274.969,97.2496 272.5,99.5C 268.663,93.8302 265.33,87.8302 262.5,81.5C 262.217,80.7109 261.717,80.0442 261,79.5C 260.5,91.1619 260.333,102.829 260.5,114.5C 258.588,112.128 257.422,112.795 257,116.5C 256.333,117.833 255.667,117.833 255,116.5C 254.781,117.938 254.281,119.271 253.5,120.5C 251.53,119.557 250.03,120.224 249,122.5C 248.667,122.167 248.333,121.833 248,121.5C 246.899,123.936 245.399,126.103 243.5,128C 244.863,130.129 244.529,130.629 242.5,129.5C 242.693,130.688 242.193,132.022 241,133.5C 240.667,133.167 240.333,132.833 240,132.5C 239.667,134.5 239.333,136.5 239,138.5C 238.781,137.062 238.281,135.729 237.5,134.5C 236.117,137.076 235.283,136.742 235,133.5C 234.667,134.833 234.333,136.167 234,137.5C 233.667,137.167 233.333,136.833 233,136.5C 231.148,138.23 231.314,139.396 233.5,140C 232.234,140.309 231.067,140.809 230,141.5C 229.667,141.167 229.333,140.833 229,140.5C 227.54,142.972 226.54,145.639 226,148.5C 225.667,147.833 225.333,147.167 225,146.5C 223.594,149.409 221.428,151.409 218.5,152.5C 218.5,137.167 218.5,121.833 218.5,106.5C 220.049,106.264 221.549,106.264 223,106.5C 223.684,105.216 223.517,104.049 222.5,103C 224.723,100.777 227.389,99.444 230.5,99C 229.549,98.2825 229.383,97.4491 230,96.5C 232.906,95.2015 235.406,93.3682 237.5,91C 236.663,89.9887 236.33,88.8221 236.5,87.5C 240.021,87.17 243.021,85.67 245.5,83C 244.833,82.6667 244.167,82.3333 243.5,82C 245.301,81.6827 245.634,81.016 244.5,80C 247.504,79.3272 250.004,77.8272 252,75.5C 252.333,75.8333 252.667,76.1667 253,76.5C 253.213,72.28 255.713,69.78 260.5,69C 259.833,68.6667 259.167,68.3333 258.5,68C 259.984,66.4263 261.651,65.093 263.5,64C 262.833,63.6667 262.167,63.3333 261.5,63C 263.246,62.5291 264.913,61.8624 266.5,61C 265.833,60.6667 265.167,60.3333 264.5,60C 267.323,59.7978 269.99,58.6311 272.5,56.5 Z"/></g>
<g><path style="opacity:1" fill="#23bec9" d="M 288.5,83.5 C 294.07,92.2994 299.404,101.299 304.5,110.5C 302.061,112.534 299.728,114.701 297.5,117C 296.167,117.333 294.833,117.667 293.5,118C 294.833,118.667 295.833,119.667 296.5,121C 293.828,120.417 291.828,121.584 290.5,124.5C 289.914,124.291 289.414,123.957 289,123.5C 288.722,124.416 288.222,125.082 287.5,125.5C 282.5,116.833 277.5,108.167 272.5,99.5C 274.969,97.2496 276.969,94.583 278.5,91.5C 279.689,90.5713 281.022,90.238 282.5,90.5C 282.351,89.448 282.517,88.448 283,87.5C 283.741,88.6405 284.575,88.6405 285.5,87.5C 286.281,86.2713 286.781,84.938 287,83.5C 287.69,84.7383 288.19,84.7383 288.5,83.5 Z"/></g>
<g><path style="opacity:1" fill="#26b9ca" d="M 304.5,110.5 C 310.261,119.593 315.594,128.926 320.5,138.5C 319.265,138.721 318.265,139.388 317.5,140.5C 316.914,140.291 316.414,139.957 316,139.5C 315.667,140.833 315.333,142.167 315,143.5C 314.667,143.167 314.333,142.833 314,142.5C 311.451,144.101 310.284,146.101 310.5,148.5C 309.914,148.291 309.414,147.957 309,147.5C 307.951,149.107 306.451,149.773 304.5,149.5C 304.5,150.833 304.5,152.167 304.5,153.5C 298.345,144.535 292.679,135.202 287.5,125.5C 288.222,125.082 288.722,124.416 289,123.5C 289.414,123.957 289.914,124.291 290.5,124.5C 291.828,121.584 293.828,120.417 296.5,121C 295.833,119.667 294.833,118.667 293.5,118C 294.833,117.667 296.167,117.333 297.5,117C 299.728,114.701 302.061,112.534 304.5,110.5 Z"/></g>
<g><path style="opacity:1" fill="#01bec9" d="M 260.5,114.5 C 260.5,127.833 260.5,141.167 260.5,154.5C 259.312,155.684 258.145,155.684 257,154.5C 254.645,157.628 255.145,158.795 258.5,158C 257.371,160.168 255.871,160.668 254,159.5C 252.667,162.167 250.667,164.167 248,165.5C 247.935,167.883 247.102,168.55 245.5,167.5C 245.704,168.529 245.204,169.529 244,170.5C 243.333,169.167 242.667,169.167 242,170.5C 241.966,172.18 241.799,173.68 241.5,175C 240.256,175.456 239.423,174.956 239,173.5C 238.529,175.246 237.862,176.913 237,178.5C 236.282,177.549 235.449,177.383 234.5,178C 235.328,178.915 236.328,179.581 237.5,180C 233.91,180.742 231.077,182.575 229,185.5C 227.633,184.476 226.8,184.976 226.5,187C 227.938,189.366 227.438,189.866 225,188.5C 224.395,190.481 223.395,190.815 222,189.5C 221.529,191.246 220.862,192.913 220,194.5C 219.667,194.167 219.333,193.833 219,193.5C 218.503,196.146 218.336,198.813 218.5,201.5C 217.897,185.338 217.897,169.005 218.5,152.5C 221.428,151.409 223.594,149.409 225,146.5C 225.333,147.167 225.667,147.833 226,148.5C 226.54,145.639 227.54,142.972 229,140.5C 229.333,140.833 229.667,141.167 230,141.5C 231.067,140.809 232.234,140.309 233.5,140C 231.314,139.396 231.148,138.23 233,136.5C 233.333,136.833 233.667,137.167 234,137.5C 234.333,136.167 234.667,134.833 235,133.5C 235.283,136.742 236.117,137.076 237.5,134.5C 238.281,135.729 238.781,137.062 239,138.5C 239.333,136.5 239.667,134.5 240,132.5C 240.333,132.833 240.667,133.167 241,133.5C 242.193,132.022 242.693,130.688 242.5,129.5C 244.529,130.629 244.863,130.129 243.5,128C 245.399,126.103 246.899,123.936 248,121.5C 248.333,121.833 248.667,122.167 249,122.5C 250.03,120.224 251.53,119.557 253.5,120.5C 254.281,119.271 254.781,117.938 255,116.5C 255.667,117.833 256.333,117.833 257,116.5C 257.422,112.795 258.588,112.128 260.5,114.5 Z"/></g>
<g><path style="opacity:0.992" fill="#3ca1af" d="M 262.5,81.5 C 261.502,113.329 261.168,145.329 261.5,177.5C 261.167,177.5 260.833,177.5 260.5,177.5C 260.5,169.833 260.5,162.167 260.5,154.5C 260.5,141.167 260.5,127.833 260.5,114.5C 260.333,102.829 260.5,91.1619 261,79.5C 261.717,80.0442 262.217,80.7109 262.5,81.5 Z"/></g>
<g><path style="opacity:1" fill="#1db2cc" d="M 320.5,138.5 C 326.336,147.5 331.669,156.833 336.5,166.5C 334.493,165.321 334.16,165.821 335.5,168C 335,168.5 334.5,169 334,169.5C 332.417,169.507 330.751,169.174 329,168.5C 328.289,170.367 328.789,171.867 330.5,173C 328.725,174.439 326.725,175.439 324.5,176C 325.167,176.333 325.833,176.667 326.5,177C 324.939,177.941 323.605,179.108 322.5,180.5C 323.376,181.251 324.376,181.751 325.5,182C 325.658,183.587 324.991,185.087 323.5,186.5C 316.412,175.998 310.079,164.998 304.5,153.5C 304.5,152.167 304.5,150.833 304.5,149.5C 306.451,149.773 307.951,149.107 309,147.5C 309.414,147.957 309.914,148.291 310.5,148.5C 310.284,146.101 311.451,144.101 314,142.5C 314.333,142.833 314.667,143.167 315,143.5C 315.333,142.167 315.667,140.833 316,139.5C 316.414,139.957 316.914,140.291 317.5,140.5C 318.265,139.388 319.265,138.721 320.5,138.5 Z"/></g>
<g><path style="opacity:1" fill="#00b8cb" d="M 260.5,154.5 C 260.5,162.167 260.5,169.833 260.5,177.5C 260.5,184.167 260.5,190.833 260.5,197.5C 258.912,199.319 257.246,201.153 255.5,203C 254.256,203.456 253.423,202.956 253,201.5C 252.654,203.218 252.154,204.885 251.5,206.5C 252.563,208.366 251.896,208.866 249.5,208C 250.696,207.346 250.696,206.846 249.5,206.5C 248.138,208.012 247.804,209.512 248.5,211C 247.258,211.311 246.258,210.811 245.5,209.5C 245.382,211.083 244.549,212.749 243,214.5C 241.16,213.167 240.66,213.334 241.5,215C 240.562,216.063 239.562,217.23 238.5,218.5C 239.416,220.784 238.416,221.951 235.5,222C 234.167,222.667 234.167,223.333 235.5,224C 234.167,224 232.833,224 231.5,224C 230.359,224.741 230.359,225.575 231.5,226.5C 230.092,229.62 228.258,230.287 226,228.5C 224.244,229.421 224.077,230.588 225.5,232C 223.976,233.194 222.81,234.694 222,236.5C 221.667,235.833 221.333,235.167 221,234.5C 220.292,235.381 219.458,236.047 218.5,236.5C 218.5,225.5 218.5,214.5 218.5,203.5C 218.5,202.833 218.5,202.167 218.5,201.5C 218.336,198.813 218.503,196.146 219,193.5C 219.333,193.833 219.667,194.167 220,194.5C 220.862,192.913 221.529,191.246 222,189.5C 223.395,190.815 224.395,190.481 225,188.5C 227.438,189.866 227.938,189.366 226.5,187C 226.8,184.976 227.633,184.476 229,185.5C 231.077,182.575 233.91,180.742 237.5,180C 236.328,179.581 235.328,178.915 234.5,178C 235.449,177.383 236.282,177.549 237,178.5C 237.862,176.913 238.529,175.246 239,173.5C 239.423,174.956 240.256,175.456 241.5,175C 241.799,173.68 241.966,172.18 242,170.5C 242.667,169.167 243.333,169.167 244,170.5C 245.204,169.529 245.704,168.529 245.5,167.5C 247.102,168.55 247.935,167.883 248,165.5C 250.667,164.167 252.667,162.167 254,159.5C 255.871,160.668 257.371,160.168 258.5,158C 255.145,158.795 254.645,157.628 257,154.5C 258.145,155.684 259.312,155.684 260.5,154.5 Z"/></g>
<g><path style="opacity:1" fill="#2bc8c7" d="M 167.5,165.5 C 159.558,180.097 151.225,194.431 142.5,208.5C 142.649,207.448 142.483,206.448 142,205.5C 140.494,203.826 138.661,202.826 136.5,202.5C 136.439,207.322 135.273,207.655 133,203.5C 131.833,205.333 130.333,206.833 128.5,208C 130.059,208.98 131.726,209.813 133.5,210.5C 133.333,210.833 133.167,211.167 133,211.5C 131.333,211.167 129.667,210.833 128,210.5C 127.667,211.5 127.333,212.5 127,213.5C 125.602,212.949 124.268,212.616 123,212.5C 122.167,214 121,215.167 119.5,216C 120.711,216.893 120.711,217.726 119.5,218.5C 116.78,217.235 114.78,218.068 113.5,221C 115.126,220.805 116.793,220.805 118.5,221C 117.107,222.171 116.273,223.671 116,225.5C 115.517,224.552 115.351,223.552 115.5,222.5C 113.058,222.354 112.391,223.187 113.5,225C 110.833,225.667 110.833,226.333 113.5,227C 112.333,227.5 111.5,228.333 111,229.5C 110.444,227.405 109.944,227.238 109.5,229C 109.905,229.945 110.572,230.612 111.5,231C 109.579,231.36 107.912,232.194 106.5,233.5C 106.167,232.833 105.833,232.167 105.5,231.5C 104.817,231.863 104.15,232.196 103.5,232.5C 109.488,221.861 115.488,211.194 121.5,200.5C 123.113,200.944 124.28,201.944 125,203.5C 125.5,203 126,202.5 126.5,202C 124.875,201.147 124.542,200.147 125.5,199C 128.601,198.058 130.934,196.224 132.5,193.5C 133.192,194.025 133.692,194.692 134,195.5C 135.044,193.285 135.71,190.952 136,188.5C 137.204,189.471 137.704,190.471 137.5,191.5C 138.281,190.271 138.781,188.938 139,187.5C 139.853,185.875 140.853,185.542 142,186.5C 141.021,184.721 141.354,183.055 143,181.5C 143.423,182.956 144.256,183.456 145.5,183C 144.72,181.927 144.887,180.76 146,179.5C 146.92,179.07 147.753,178.736 148.5,178.5C 148.291,177.914 147.957,177.414 147.5,177C 150.062,174.587 153.062,172.92 156.5,172C 157.88,170.676 158.214,169.343 157.5,168C 158.469,166.242 159.636,165.742 161,166.5C 162.493,164.338 164.16,162.338 166,160.5C 166.608,162.154 167.108,163.821 167.5,165.5 Z"/></g>
<g><path style="opacity:1" fill="#1aacce" d="M 336.5,166.5 C 342.586,174.997 347.919,183.997 352.5,193.5C 351.927,196.759 349.927,198.592 346.5,199C 347.328,199.915 348.328,200.581 349.5,201C 346.467,202.045 343.8,203.712 341.5,206C 343.929,206.451 344.096,207.285 342,208.5C 339.27,205.654 337.77,206.32 337.5,210.5C 332.332,202.836 327.665,194.836 323.5,186.5C 324.991,185.087 325.658,183.587 325.5,182C 324.376,181.751 323.376,181.251 322.5,180.5C 323.605,179.108 324.939,177.941 326.5,177C 325.833,176.667 325.167,176.333 324.5,176C 326.725,175.439 328.725,174.439 330.5,173C 328.789,171.867 328.289,170.367 329,168.5C 330.751,169.174 332.417,169.507 334,169.5C 334.5,169 335,168.5 335.5,168C 334.16,165.821 334.493,165.321 336.5,166.5 Z"/></g>
<g><path style="opacity:1" fill="#1eb0b8" d="M 260.5,177.5 C 260.833,177.5 261.167,177.5 261.5,177.5C 271.5,183.167 281.5,188.833 291.5,194.5C 291.281,195.675 291.614,196.675 292.5,197.5C 294.815,198.234 296.648,199.568 298,201.5C 298.333,201.167 298.667,200.833 299,200.5C 301.054,202.14 301.387,203.806 300,205.5C 298.27,203.398 296.437,203.565 294.5,206C 295.471,207.204 296.471,207.704 297.5,207.5C 295.972,210.275 293.639,212.108 290.5,213C 291.167,213.333 291.833,213.667 292.5,214C 289.937,215.079 287.271,215.579 284.5,215.5C 276.874,212.02 269.54,208.02 262.5,203.5C 262.158,202.662 261.492,202.328 260.5,202.5C 260.5,200.833 260.5,199.167 260.5,197.5C 260.5,190.833 260.5,184.167 260.5,177.5 Z"/></g>
<g><path style="opacity:1" fill="#31bcb6" d="M 218.5,106.5 C 218.5,121.833 218.5,137.167 218.5,152.5C 217.897,169.005 217.897,185.338 218.5,201.5C 218.5,202.167 218.5,202.833 218.5,203.5C 218.167,203.5 217.833,203.5 217.5,203.5C 191.888,217.642 166.221,231.809 140.5,246C 139.619,246.708 138.953,247.542 138.5,248.5C 135.366,247.099 132.366,245.432 129.5,243.5C 127.709,242.213 126.043,240.713 124.5,239C 127.347,234.004 130.347,229.171 133.5,224.5C 134.167,224.5 134.5,224.167 134.5,223.5C 162.188,208.571 189.688,193.238 217,177.5C 217.831,145.331 217.664,113.331 216.5,81.5C 216.369,80.6236 216.702,79.9569 217.5,79.5C 218.498,88.4754 218.832,97.4754 218.5,106.5 Z"/></g>
<g><path style="opacity:1" fill="#1ba6d0" d="M 352.5,193.5 C 358.485,203.464 364.485,213.464 370.5,223.5C 369.325,223.281 368.325,223.614 367.5,224.5C 368.629,226.529 368.129,226.863 366,225.5C 364.933,226.191 363.766,226.691 362.5,227C 363.5,227.333 364.5,227.667 365.5,228C 362.716,228.95 360.716,230.783 359.5,233.5C 357.898,232.45 357.065,233.117 357,235.5C 355.568,233.069 354.068,233.069 352.5,235.5C 349.583,231.334 346.916,227.001 344.5,222.5C 341.665,218.836 339.332,214.836 337.5,210.5C 337.77,206.32 339.27,205.654 342,208.5C 344.096,207.285 343.929,206.451 341.5,206C 343.8,203.712 346.467,202.045 349.5,201C 348.328,200.581 347.328,199.915 346.5,199C 349.927,198.592 351.927,196.759 352.5,193.5 Z"/></g>
<g><path style="opacity:1" fill="#00b2cd" d="M 260.5,197.5 C 260.5,199.167 260.5,200.833 260.5,202.5C 260.5,216.167 260.5,229.833 260.5,243.5C 259.571,242.064 258.405,240.731 257,239.5C 256.342,241.108 256.842,242.275 258.5,243C 256.892,243.658 255.725,243.158 255,241.5C 252.965,244.409 253.465,246.909 256.5,249C 255.256,249.456 254.423,248.956 254,247.5C 252.197,247.094 250.364,247.594 248.5,249C 250.5,250 252.5,251 254.5,252C 251.245,251.541 248.078,251.374 245,251.5C 244.316,252.784 244.483,253.951 245.5,255C 244.833,255.333 244.167,255.667 243.5,256C 244.672,256.419 245.672,257.085 246.5,258C 244.195,260.27 242.029,260.436 240,258.5C 241.012,261.341 239.845,262.674 236.5,262.5C 236.716,264.681 235.883,266.347 234,267.5C 233.333,264.833 232.667,264.833 232,267.5C 230.927,266.72 229.76,266.887 228.5,268C 229.91,268.368 230.91,269.201 231.5,270.5C 230.635,270.564 229.635,270.897 228.5,271.5C 226.967,273.289 225.967,275.289 225.5,277.5C 223.61,277.703 222.11,277.037 221,275.5C 221.536,277.447 221.202,279.447 220,281.5C 219.722,280.584 219.222,279.918 218.5,279.5C 218.5,265.167 218.5,250.833 218.5,236.5C 219.458,236.047 220.292,235.381 221,234.5C 221.333,235.167 221.667,235.833 222,236.5C 222.81,234.694 223.976,233.194 225.5,232C 224.077,230.588 224.244,229.421 226,228.5C 228.258,230.287 230.092,229.62 231.5,226.5C 230.359,225.575 230.359,224.741 231.5,224C 232.833,224 234.167,224 235.5,224C 234.167,223.333 234.167,222.667 235.5,222C 238.416,221.951 239.416,220.784 238.5,218.5C 239.562,217.23 240.562,216.063 241.5,215C 240.66,213.334 241.16,213.167 243,214.5C 244.549,212.749 245.382,211.083 245.5,209.5C 246.258,210.811 247.258,211.311 248.5,211C 247.804,209.512 248.138,208.012 249.5,206.5C 250.696,206.846 250.696,207.346 249.5,208C 251.896,208.866 252.563,208.366 251.5,206.5C 252.154,204.885 252.654,203.218 253,201.5C 253.423,202.956 254.256,203.456 255.5,203C 257.246,201.153 258.912,199.319 260.5,197.5 Z"/></g>
<g><path style="opacity:1" fill="#1fc5c7" d="M 142.5,208.5 C 140.1,213.632 137.434,218.632 134.5,223.5C 133.833,223.5 133.5,223.833 133.5,224.5C 130.347,229.171 127.347,234.004 124.5,239C 126.043,240.713 127.709,242.213 129.5,243.5C 128.069,243.881 127.236,244.881 127,246.5C 123.526,245.072 123.026,245.572 125.5,248C 124.551,248.617 123.718,248.451 123,247.5C 120.939,249.806 118.772,251.973 116.5,254C 117.167,254.333 117.833,254.667 118.5,255C 117.207,255.49 115.873,255.657 114.5,255.5C 114.5,256.5 114.5,257.5 114.5,258.5C 108.141,255.234 101.974,251.567 96,247.5C 97.4028,242.028 99.9028,237.028 103.5,232.5C 104.15,232.196 104.817,231.863 105.5,231.5C 105.833,232.167 106.167,232.833 106.5,233.5C 107.912,232.194 109.579,231.36 111.5,231C 110.572,230.612 109.905,229.945 109.5,229C 109.944,227.238 110.444,227.405 111,229.5C 111.5,228.333 112.333,227.5 113.5,227C 110.833,226.333 110.833,225.667 113.5,225C 112.391,223.187 113.058,222.354 115.5,222.5C 115.351,223.552 115.517,224.552 116,225.5C 116.273,223.671 117.107,222.171 118.5,221C 116.793,220.805 115.126,220.805 113.5,221C 114.78,218.068 116.78,217.235 119.5,218.5C 120.711,217.726 120.711,216.893 119.5,216C 121,215.167 122.167,214 123,212.5C 124.268,212.616 125.602,212.949 127,213.5C 127.333,212.5 127.667,211.5 128,210.5C 129.667,210.833 131.333,211.167 133,211.5C 133.167,211.167 133.333,210.833 133.5,210.5C 131.726,209.813 130.059,208.98 128.5,208C 130.333,206.833 131.833,205.333 133,203.5C 135.273,207.655 136.439,207.322 136.5,202.5C 138.661,202.826 140.494,203.826 142,205.5C 142.483,206.448 142.649,207.448 142.5,208.5 Z"/></g>
<g><path style="opacity:1" fill="#1daabb" d="M 291.5,194.5 C 304.529,201.343 317.196,208.677 329.5,216.5C 329.389,217.117 329.056,217.617 328.5,218C 331.938,218.92 334.938,220.587 337.5,223C 336.289,224.113 336.289,225.28 337.5,226.5C 336.271,227.281 334.938,227.781 333.5,228C 334.654,228.914 334.487,229.747 333,230.5C 332.026,228.122 331.359,228.456 331,231.5C 330.333,230.167 329.667,230.167 329,231.5C 328.727,233.101 328.227,234.601 327.5,236C 327.833,236.333 328.167,236.667 328.5,237C 326.063,236.797 323.729,235.963 321.5,234.5C 320.817,234.863 320.15,235.196 319.5,235.5C 307.635,229.071 295.969,222.404 284.5,215.5C 287.271,215.579 289.937,215.079 292.5,214C 291.833,213.667 291.167,213.333 290.5,213C 293.639,212.108 295.972,210.275 297.5,207.5C 296.471,207.704 295.471,207.204 294.5,206C 296.437,203.565 298.27,203.398 300,205.5C 301.387,203.806 301.054,202.14 299,200.5C 298.667,200.833 298.333,201.167 298,201.5C 296.648,199.568 294.815,198.234 292.5,197.5C 291.614,196.675 291.281,195.675 291.5,194.5 Z"/></g>
<g><path style="opacity:1" fill="#31adb1" d="M 217.5,203.5 C 217.833,203.5 218.167,203.5 218.5,203.5C 218.5,214.5 218.5,225.5 218.5,236.5C 218.5,250.833 218.5,265.167 218.5,279.5C 218.5,285.833 218.5,292.167 218.5,298.5C 216.821,298.715 215.821,298.048 215.5,296.5C 216.117,296.611 216.617,296.944 217,297.5C 217.5,266.168 217.667,234.835 217.5,203.5 Z"/></g>
<g><path style="opacity:1" fill="#1ba6bc" d="M 329.5,216.5 C 334.52,218.762 339.353,221.428 344,224.5C 344.464,223.906 344.631,223.239 344.5,222.5C 346.916,227.001 349.583,231.334 352.5,235.5C 353.153,236.807 353.82,238.14 354.5,239.5C 349.816,242.526 345.149,245.526 340.5,248.5C 333.668,243.916 326.668,239.583 319.5,235.5C 320.15,235.196 320.817,234.863 321.5,234.5C 323.729,235.963 326.063,236.797 328.5,237C 328.167,236.667 327.833,236.333 327.5,236C 328.227,234.601 328.727,233.101 329,231.5C 329.667,230.167 330.333,230.167 331,231.5C 331.359,228.456 332.026,228.122 333,230.5C 334.487,229.747 334.654,228.914 333.5,228C 334.938,227.781 336.271,227.281 337.5,226.5C 336.289,225.28 336.289,224.113 337.5,223C 334.938,220.587 331.938,218.92 328.5,218C 329.056,217.617 329.389,217.117 329.5,216.5 Z"/></g>
<g><path style="opacity:1" fill="#2aa3d2" d="M 370.5,223.5 C 373.403,228.971 376.57,234.304 380,239.5C 381.626,242.058 382.626,244.725 383,247.5C 353.223,266.303 323.389,284.969 293.5,303.5C 292.781,301.683 291.781,301.016 290.5,301.5C 291.376,300.749 292.376,300.249 293.5,300C 292.044,299.577 291.544,298.744 292,297.5C 292.333,297.833 292.667,298.167 293,298.5C 294.041,296.415 295.541,294.748 297.5,293.5C 298.451,294.326 299.451,294.492 300.5,294C 300.167,293.667 299.833,293.333 299.5,293C 300.79,289.724 303.123,287.724 306.5,287C 305.833,286.667 305.167,286.333 304.5,286C 306.772,283.973 308.939,281.806 311,279.5C 314.11,280.673 314.277,280.173 311.5,278C 314.633,275.576 317.799,273.743 321,272.5C 322.852,270.77 322.686,269.604 320.5,269C 324.08,265.532 328.08,262.532 332.5,260C 331.167,258.16 331.334,257.66 333,258.5C 333.317,256.699 333.984,256.366 335,257.5C 337.096,256.285 336.929,255.451 334.5,255C 338.451,253.982 340.451,251.815 340.5,248.5C 345.149,245.526 349.816,242.526 354.5,239.5C 353.82,238.14 353.153,236.807 352.5,235.5C 354.068,233.069 355.568,233.069 357,235.5C 357.065,233.117 357.898,232.45 359.5,233.5C 360.716,230.783 362.716,228.95 365.5,228C 364.5,227.667 363.5,227.333 362.5,227C 363.766,226.691 364.933,226.191 366,225.5C 368.129,226.863 368.629,226.529 367.5,224.5C 368.325,223.614 369.325,223.281 370.5,223.5 Z"/></g>
<g><path style="opacity:0.992" fill="#36a2b2" d="M 260.5,202.5 C 261.492,202.328 262.158,202.662 262.5,203.5C 261.167,234.833 261.167,266.167 262.5,297.5C 262.44,298.043 262.107,298.376 261.5,298.5C 260.513,295.232 260.18,291.898 260.5,288.5C 260.5,273.5 260.5,258.5 260.5,243.5C 260.5,229.833 260.5,216.167 260.5,202.5 Z"/></g>
<g><path style="opacity:1" fill="#26c0c9" d="M 129.5,243.5 C 132.366,245.432 135.366,247.099 138.5,248.5C 145.01,252.253 151.344,256.253 157.5,260.5C 156.178,260.67 155.011,260.337 154,259.5C 153.546,262.612 151.713,264.278 148.5,264.5C 148.274,266.736 147.441,269.07 146,271.5C 145.29,270.027 144.124,269.36 142.5,269.5C 141.757,271.696 141.424,273.696 141.5,275.5C 131.986,270.58 122.986,264.914 114.5,258.5C 114.5,257.5 114.5,256.5 114.5,255.5C 115.873,255.657 117.207,255.49 118.5,255C 117.833,254.667 117.167,254.333 116.5,254C 118.772,251.973 120.939,249.806 123,247.5C 123.718,248.451 124.551,248.617 125.5,248C 123.026,245.572 123.526,245.072 127,246.5C 127.236,244.881 128.069,243.881 129.5,243.5 Z"/></g>
<g><path style="opacity:1" fill="#0aaccf" d="M 260.5,243.5 C 260.5,258.5 260.5,273.5 260.5,288.5C 258.338,288.897 257.005,290.231 256.5,292.5C 255.914,292.291 255.414,291.957 255,291.5C 253.729,294.433 252.062,297.099 250,299.5C 249.667,298.833 249.333,298.167 249,297.5C 247.562,298.9 246.729,300.567 246.5,302.5C 245.5,302.5 244.5,302.5 243.5,302.5C 243.649,303.552 243.483,304.552 243,305.5C 242.667,305.167 242.333,304.833 242,304.5C 240.562,305.9 239.729,307.567 239.5,309.5C 238.167,309.5 236.833,309.5 235.5,309.5C 237.175,313.299 235.842,315.466 231.5,316C 232.5,316.333 233.5,316.667 234.5,317C 231.475,317.133 228.808,318.133 226.5,320C 227.956,320.423 228.456,321.256 228,322.5C 226.475,322.888 224.808,322.888 223,322.5C 222.626,323.416 222.126,324.25 221.5,325C 222.381,325.708 223.047,326.542 223.5,327.5C 214.228,322.221 205.228,316.554 196.5,310.5C 196.027,309.094 195.027,308.427 193.5,308.5C 194.718,307.839 196.051,307.172 197.5,306.5C 196.833,305.5 196.167,304.5 195.5,303.5C 196.531,302.3 197.365,300.966 198,299.5C 198.974,301.878 199.641,301.544 200,298.5C 200.333,298.833 200.667,299.167 201,299.5C 200.737,298.049 200.904,296.716 201.5,295.5C 202.192,296.025 202.692,296.692 203,297.5C 203.49,296.207 203.657,294.873 203.5,293.5C 205.484,293.383 207.15,294.05 208.5,295.5C 207.833,295.833 207.167,296.167 206.5,296.5C 206.808,297.308 207.308,297.975 208,298.5C 209.512,297.743 210.846,296.743 212,295.5C 212.342,297.619 213.175,297.953 214.5,296.5C 214.833,296.5 215.167,296.5 215.5,296.5C 215.821,298.048 216.821,298.715 218.5,298.5C 218.5,292.167 218.5,285.833 218.5,279.5C 219.222,279.918 219.722,280.584 220,281.5C 221.202,279.447 221.536,277.447 221,275.5C 222.11,277.037 223.61,277.703 225.5,277.5C 225.967,275.289 226.967,273.289 228.5,271.5C 229.635,270.897 230.635,270.564 231.5,270.5C 230.91,269.201 229.91,268.368 228.5,268C 229.76,266.887 230.927,266.72 232,267.5C 232.667,264.833 233.333,264.833 234,267.5C 235.883,266.347 236.716,264.681 236.5,262.5C 239.845,262.674 241.012,261.341 240,258.5C 242.029,260.436 244.195,260.27 246.5,258C 245.672,257.085 244.672,256.419 243.5,256C 244.167,255.667 244.833,255.333 245.5,255C 244.483,253.951 244.316,252.784 245,251.5C 248.078,251.374 251.245,251.541 254.5,252C 252.5,251 250.5,250 248.5,249C 250.364,247.594 252.197,247.094 254,247.5C 254.423,248.956 255.256,249.456 256.5,249C 253.465,246.909 252.965,244.409 255,241.5C 255.725,243.158 256.892,243.658 258.5,243C 256.842,242.275 256.342,241.108 257,239.5C 258.405,240.731 259.571,242.064 260.5,243.5 Z"/></g>
<g><path style="opacity:1" fill="#1ca6d0" d="M 340.5,248.5 C 340.451,251.815 338.451,253.982 334.5,255C 336.929,255.451 337.096,256.285 335,257.5C 333.984,256.366 333.317,256.699 333,258.5C 331.334,257.66 331.167,258.16 332.5,260C 328.08,262.532 324.08,265.532 320.5,269C 322.686,269.604 322.852,270.77 321,272.5C 317.799,273.743 314.633,275.576 311.5,278C 314.277,280.173 314.11,280.673 311,279.5C 308.939,281.806 306.772,283.973 304.5,286C 305.167,286.333 305.833,286.667 306.5,287C 303.123,287.724 300.79,289.724 299.5,293C 299.833,293.333 300.167,293.667 300.5,294C 299.451,294.492 298.451,294.326 297.5,293.5C 295.541,294.748 294.041,296.415 293,298.5C 292.667,298.167 292.333,297.833 292,297.5C 291.544,298.744 292.044,299.577 293.5,300C 292.376,300.249 291.376,300.749 290.5,301.5C 291.781,301.016 292.781,301.683 293.5,303.5C 276.007,314.804 258.34,325.97 240.5,337C 234.339,334.915 228.672,331.748 223.5,327.5C 223.047,326.542 222.381,325.708 221.5,325C 222.126,324.25 222.626,323.416 223,322.5C 224.808,322.888 226.475,322.888 228,322.5C 228.456,321.256 227.956,320.423 226.5,320C 228.808,318.133 231.475,317.133 234.5,317C 233.5,316.667 232.5,316.333 231.5,316C 235.842,315.466 237.175,313.299 235.5,309.5C 236.833,309.5 238.167,309.5 239.5,309.5C 239.729,307.567 240.562,305.9 242,304.5C 242.333,304.833 242.667,305.167 243,305.5C 243.483,304.552 243.649,303.552 243.5,302.5C 244.5,302.5 245.5,302.5 246.5,302.5C 246.729,300.567 247.562,298.9 249,297.5C 249.333,298.167 249.667,298.833 250,299.5C 252.062,297.099 253.729,294.433 255,291.5C 255.414,291.957 255.914,292.291 256.5,292.5C 257.005,290.231 258.338,288.897 260.5,288.5C 260.18,291.898 260.513,295.232 261.5,298.5C 262.107,298.376 262.44,298.043 262.5,297.5C 288.155,280.67 314.155,264.336 340.5,248.5 Z"/></g>
<g><path style="opacity:1" fill="#2cbbcb" d="M 157.5,260.5 C 166.35,265.088 174.684,270.421 182.5,276.5C 181.504,276.586 180.671,276.252 180,275.5C 178.108,279.058 175.275,281.558 171.5,283C 171.5,284.333 171.5,285.667 171.5,287C 169.141,288.242 167.141,289.742 165.5,291.5C 157.205,286.526 149.205,281.192 141.5,275.5C 141.424,273.696 141.757,271.696 142.5,269.5C 144.124,269.36 145.29,270.027 146,271.5C 147.441,269.07 148.274,266.736 148.5,264.5C 151.713,264.278 153.546,262.612 154,259.5C 155.011,260.337 156.178,260.67 157.5,260.5 Z"/></g>
<g><path style="opacity:1" fill="#4cc6cf" d="M 127.5,291.5 C 124.824,289.752 122.991,290.419 122,293.5C 121.667,293.167 121.333,292.833 121,292.5C 120.667,293.833 120.333,295.167 120,296.5C 119.163,294.993 117.996,294.493 116.5,295C 116.833,295.333 117.167,295.667 117.5,296C 114.589,296.698 113.923,298.198 115.5,300.5C 109.022,291.567 102.522,282.567 96,273.5C 95.3333,272.5 95.3333,271.5 96,270.5C 106.479,277.647 116.979,284.647 127.5,291.5 Z"/></g>
<g><path style="opacity:1" fill="#149ad5" d="M 295.5,398.5 C 293.852,394.798 292.352,394.798 291,398.5C 290.086,397.346 289.253,397.513 288.5,399C 289.634,400.016 289.301,400.683 287.5,401C 288.167,401.333 288.833,401.667 289.5,402C 287.866,402.494 286.199,402.66 284.5,402.5C 284.657,403.873 284.49,405.207 284,406.5C 283.667,406.167 283.333,405.833 283,405.5C 281.5,406.667 280,407.833 278.5,409C 280.443,410.193 280.276,411.693 278,413.5C 277.667,412.833 277.333,412.167 277,411.5C 275.5,413 274,414.5 272.5,416C 274.589,419.123 273.922,419.29 270.5,416.5C 269.713,417.242 269.047,418.075 268.5,419C 269.051,420.398 269.384,421.732 269.5,423C 266.898,424.015 265.065,425.848 264,428.5C 263.667,428.167 263.333,427.833 263,427.5C 262.449,430.557 260.783,430.89 258,428.5C 255.976,430.792 256.31,431.459 259,430.5C 259.46,432.714 258.793,433.381 257,432.5C 255.425,436.485 252.758,438.152 249,437.5C 246.866,439.578 247.032,441.412 249.5,443C 246.785,443.878 244.451,445.378 242.5,447.5C 241.914,447.291 241.414,446.957 241,446.5C 240.667,447.833 240.333,449.167 240,450.5C 238.667,451.167 237.667,452.167 237,453.5C 236.667,453.167 236.333,452.833 236,452.5C 235.641,455.544 234.974,455.878 234,453.5C 233.28,455.112 233.446,456.612 234.5,458C 233.551,458.617 232.718,458.451 232,457.5C 230.298,459.138 228.798,460.805 227.5,462.5C 219.809,452.131 212.476,441.465 205.5,430.5C 204.231,427.244 205.564,425.744 209.5,426C 210.88,424.075 212.38,422.241 214,420.5C 215.333,420.5 216.667,420.5 218,420.5C 218.456,419.256 217.956,418.423 216.5,418C 219.128,415.534 222.128,413.701 225.5,412.5C 226.052,410.997 226.052,409.331 225.5,407.5C 228.715,406.824 230.882,404.824 232,401.5C 232.333,402.167 232.667,402.833 233,403.5C 234,401.5 235,399.5 236,397.5C 236.333,397.833 236.667,398.167 237,398.5C 238.977,395.688 241.144,393.022 243.5,390.5C 244.651,389.269 245.817,389.269 247,390.5C 247.5,386.667 249.667,384.5 253.5,384C 252.833,383.667 252.167,383.333 251.5,383C 253.378,379.969 256.045,377.969 259.5,377C 258.434,375.841 258.767,375.008 260.5,374.5C 260.168,386.518 260.501,398.518 261.5,410.5C 262.107,410.376 262.44,410.043 262.5,409.5C 275.862,388.624 289.862,368.124 304.5,348C 302.011,348.237 299.678,349.071 297.5,350.5C 295.738,350.357 294.071,350.691 292.5,351.5C 292.089,350.738 291.923,349.738 292,348.5C 290.391,347.853 288.891,347.02 287.5,346C 288.449,345.383 289.282,345.549 290,346.5C 290.605,344.519 291.605,344.185 293,345.5C 294.142,343.223 294.642,340.89 294.5,338.5C 295.906,339.668 297.072,339.335 298,337.5C 297.383,335.905 297.716,334.572 299,333.5C 300.117,333.665 301.284,333.998 302.5,334.5C 303.747,332.994 303.747,331.494 302.5,330C 305.473,328.69 307.807,326.69 309.5,324C 310.744,323.544 311.577,324.044 312,325.5C 313.044,323.285 313.71,320.952 314,318.5C 315.487,319.253 315.654,320.086 314.5,321C 315.744,321.456 316.577,320.956 317,319.5C 317.333,319.833 317.667,320.167 318,320.5C 318.456,319.256 317.956,318.423 316.5,318C 317.469,316.242 318.636,315.742 320,316.5C 319.021,314.721 319.354,313.055 321,311.5C 321.423,312.956 322.256,313.456 323.5,313C 323.167,312.667 322.833,312.333 322.5,312C 323.305,310.887 323.972,309.721 324.5,308.5C 343.43,295.692 362.763,283.359 382.5,271.5C 382.833,271.833 383.167,272.167 383.5,272.5C 354.498,314.818 325.165,356.818 295.5,398.5 Z"/></g>
<g><path style="opacity:1" fill="#2db5cd" d="M 182.5,276.5 C 193.511,282.669 204.178,289.336 214.5,296.5C 213.175,297.953 212.342,297.619 212,295.5C 210.846,296.743 209.512,297.743 208,298.5C 207.308,297.975 206.808,297.308 206.5,296.5C 207.167,296.167 207.833,295.833 208.5,295.5C 207.15,294.05 205.484,293.383 203.5,293.5C 203.657,294.873 203.49,296.207 203,297.5C 202.692,296.692 202.192,296.025 201.5,295.5C 200.904,296.716 200.737,298.049 201,299.5C 200.667,299.167 200.333,298.833 200,298.5C 199.641,301.544 198.974,301.878 198,299.5C 197.365,300.966 196.531,302.3 195.5,303.5C 196.167,304.5 196.833,305.5 197.5,306.5C 196.051,307.172 194.718,307.839 193.5,308.5C 184.184,302.86 174.851,297.194 165.5,291.5C 167.141,289.742 169.141,288.242 171.5,287C 171.5,285.667 171.5,284.333 171.5,283C 175.275,281.558 178.108,279.058 180,275.5C 180.671,276.252 181.504,276.586 182.5,276.5 Z"/></g>
<g><path style="opacity:1" fill="#29bbcd" d="M 127.5,291.5 C 136.509,296.335 145.176,301.668 153.5,307.5C 151.856,307.714 150.356,307.38 149,306.5C 147.903,308.053 146.57,309.386 145,310.5C 144.316,311.784 144.483,312.951 145.5,314C 143.775,313.591 142.108,313.758 140.5,314.5C 142.461,315.848 142.628,317.181 141,318.5C 140.667,318.167 140.333,317.833 140,317.5C 139.558,319.679 138.558,320.345 137,319.5C 136.529,321.246 135.862,322.913 135,324.5C 134.023,323.226 133.189,323.226 132.5,324.5C 126.089,317.079 120.422,309.079 115.5,300.5C 113.923,298.198 114.589,296.698 117.5,296C 117.167,295.667 116.833,295.333 116.5,295C 117.996,294.493 119.163,294.993 120,296.5C 120.333,295.167 120.667,293.833 121,292.5C 121.333,292.833 121.667,293.167 122,293.5C 122.991,290.419 124.824,289.752 127.5,291.5 Z"/></g>
<g><path style="opacity:1" fill="#21b4ce" d="M 153.5,307.5 C 163.21,313.015 172.543,319.015 181.5,325.5C 180.213,326.528 179.046,326.195 178,324.5C 176.523,325.444 175.523,326.777 175,328.5C 171.801,327.764 171.635,328.597 174.5,331C 171.263,331.222 168.263,331.056 165.5,330.5C 160.32,332.61 159.653,335.444 163.5,339C 158.62,340.788 155.954,344.288 155.5,349.5C 152.001,349.259 151.668,350.092 154.5,352C 153.584,352.278 152.918,352.778 152.5,353.5C 145.06,344.389 138.394,334.722 132.5,324.5C 133.189,323.226 134.023,323.226 135,324.5C 135.862,322.913 136.529,321.246 137,319.5C 138.558,320.345 139.558,319.679 140,317.5C 140.333,317.833 140.667,318.167 141,318.5C 142.628,317.181 142.461,315.848 140.5,314.5C 142.108,313.758 143.775,313.591 145.5,314C 144.483,312.951 144.316,311.784 145,310.5C 146.57,309.386 147.903,308.053 149,306.5C 150.356,307.38 151.856,307.714 153.5,307.5 Z"/></g>
<g><path style="opacity:1" fill="#b7dac8" d="M 193.5,308.5 C 195.027,308.427 196.027,309.094 196.5,310.5C 194.973,310.573 193.973,309.906 193.5,308.5 Z"/></g>
<g><path style="opacity:1" fill="#109fd2" d="M 324.5,308.5 C 323.972,309.721 323.305,310.887 322.5,312C 322.833,312.333 323.167,312.667 323.5,313C 322.256,313.456 321.423,312.956 321,311.5C 319.354,313.055 319.021,314.721 320,316.5C 318.636,315.742 317.469,316.242 316.5,318C 317.956,318.423 318.456,319.256 318,320.5C 317.667,320.167 317.333,319.833 317,319.5C 316.577,320.956 315.744,321.456 314.5,321C 315.654,320.086 315.487,319.253 314,318.5C 313.71,320.952 313.044,323.285 312,325.5C 311.577,324.044 310.744,323.544 309.5,324C 307.807,326.69 305.473,328.69 302.5,330C 303.747,331.494 303.747,332.994 302.5,334.5C 301.284,333.998 300.117,333.665 299,333.5C 297.716,334.572 297.383,335.905 298,337.5C 297.072,339.335 295.906,339.668 294.5,338.5C 294.642,340.89 294.142,343.223 293,345.5C 291.605,344.185 290.605,344.519 290,346.5C 289.282,345.549 288.449,345.383 287.5,346C 288.891,347.02 290.391,347.853 292,348.5C 291.923,349.738 292.089,350.738 292.5,351.5C 294.071,350.691 295.738,350.357 297.5,350.5C 285.875,358.652 273.875,366.319 261.5,373.5C 260.833,373.5 260.5,373.833 260.5,374.5C 258.767,375.008 258.434,375.841 259.5,377C 256.045,377.969 253.378,379.969 251.5,383C 252.167,383.333 252.833,383.667 253.5,384C 249.667,384.5 247.5,386.667 247,390.5C 245.817,389.269 244.651,389.269 243.5,390.5C 241.144,393.022 238.977,395.688 237,398.5C 236.667,398.167 236.333,397.833 236,397.5C 235,399.5 234,401.5 233,403.5C 232.667,402.833 232.333,402.167 232,401.5C 230.882,404.824 228.715,406.824 225.5,407.5C 226.052,409.331 226.052,410.997 225.5,412.5C 222.128,413.701 219.128,415.534 216.5,418C 217.956,418.423 218.456,419.256 218,420.5C 216.667,420.5 215.333,420.5 214,420.5C 212.38,422.241 210.88,424.075 209.5,426C 205.564,425.744 204.231,427.244 205.5,430.5C 199.143,422.132 193.143,413.465 187.5,404.5C 188.561,402.468 190.228,401.134 192.5,400.5C 193.641,399.575 193.641,398.741 192.5,398C 194.754,397.376 196.421,396.043 197.5,394C 196.833,393.667 196.167,393.333 195.5,393C 197.473,392.505 199.473,392.338 201.5,392.5C 201.351,391.448 201.517,390.448 202,389.5C 202.708,390.381 203.542,391.047 204.5,391.5C 209.235,396.632 213.235,402.299 216.5,408.5C 216.461,409.756 216.961,410.756 218,411.5C 218.5,398.504 218.667,385.504 218.5,372.5C 219.315,371.571 220.148,370.571 221,369.5C 221.914,370.654 222.747,370.487 223.5,369C 223.167,368.667 222.833,368.333 222.5,368C 224.032,367.3 225.032,366.134 225.5,364.5C 226.729,363.719 228.062,363.219 229.5,363C 228.812,360.782 229.812,359.282 232.5,358.5C 234.075,359.456 235.742,360.123 237.5,360.5C 238.496,360.414 239.329,360.748 240,361.5C 267.802,343.187 295.969,325.52 324.5,308.5 Z"/></g>
<g><path style="opacity:1" fill="#19adcf" d="M 181.5,325.5 C 191.174,330.667 200.508,336.334 209.5,342.5C 207.976,343.174 206.642,344.174 205.5,345.5C 204.522,345.023 203.689,344.357 203,343.5C 202.167,345 201,346.167 199.5,347C 199.833,347.333 200.167,347.667 200.5,348C 198.833,349 197.167,350 195.5,351C 197.878,351.974 197.544,352.641 194.5,353C 195.833,354.84 195.666,355.34 194,354.5C 193.487,355.527 192.987,356.527 192.5,357.5C 186.806,354.566 181.306,351.233 176,347.5C 178.271,352.697 181.105,357.697 184.5,362.5C 183.733,363.172 183.066,364.005 182.5,365C 183.833,366.84 183.666,367.34 182,366.5C 180.43,367.614 179.097,368.947 178,370.5C 177.667,370.167 177.333,369.833 177,369.5C 175.234,372.091 173.901,374.425 173,376.5C 172.228,376.355 171.561,376.022 171,375.5C 170.51,376.793 170.343,378.127 170.5,379.5C 164.01,371.19 158.01,362.524 152.5,353.5C 152.918,352.778 153.584,352.278 154.5,352C 151.668,350.092 152.001,349.259 155.5,349.5C 155.954,344.288 158.62,340.788 163.5,339C 159.653,335.444 160.32,332.61 165.5,330.5C 168.263,331.056 171.263,331.222 174.5,331C 171.635,328.597 171.801,327.764 175,328.5C 175.523,326.777 176.523,325.444 178,324.5C 179.046,326.195 180.213,326.528 181.5,325.5 Z"/></g>
<g><path style="opacity:1" fill="#1aa7d0" d="M 209.5,342.5 C 219.125,348.14 228.458,354.14 237.5,360.5C 235.742,360.123 234.075,359.456 232.5,358.5C 229.812,359.282 228.812,360.782 229.5,363C 228.062,363.219 226.729,363.719 225.5,364.5C 225.032,366.134 224.032,367.3 222.5,368C 222.833,368.333 223.167,368.667 223.5,369C 222.747,370.487 221.914,370.654 221,369.5C 220.148,370.571 219.315,371.571 218.5,372.5C 217.833,372.5 217.167,372.5 216.5,372.5C 208.156,367.997 200.156,362.997 192.5,357.5C 192.987,356.527 193.487,355.527 194,354.5C 195.666,355.34 195.833,354.84 194.5,353C 197.544,352.641 197.878,351.974 195.5,351C 197.167,350 198.833,349 200.5,348C 200.167,347.667 199.833,347.333 199.5,347C 201,346.167 202.167,345 203,343.5C 203.689,344.357 204.522,345.023 205.5,345.5C 206.642,344.174 207.976,343.174 209.5,342.5 Z"/></g>
<g><path style="opacity:1" fill="#0fa5cf" d="M 184.5,362.5 C 191.904,371.636 198.571,381.303 204.5,391.5C 203.542,391.047 202.708,390.381 202,389.5C 201.517,390.448 201.351,391.448 201.5,392.5C 199.473,392.338 197.473,392.505 195.5,393C 196.167,393.333 196.833,393.667 197.5,394C 196.421,396.043 194.754,397.376 192.5,398C 193.641,398.741 193.641,399.575 192.5,400.5C 190.228,401.134 188.561,402.468 187.5,404.5C 181.45,396.446 175.783,388.112 170.5,379.5C 170.343,378.127 170.51,376.793 171,375.5C 171.561,376.022 172.228,376.355 173,376.5C 173.901,374.425 175.234,372.091 177,369.5C 177.333,369.833 177.667,370.167 178,370.5C 179.097,368.947 180.43,367.614 182,366.5C 183.666,367.34 183.833,366.84 182.5,365C 183.066,364.005 183.733,363.172 184.5,362.5 Z"/></g>
<g><path style="opacity:0.996" fill="#27a1b4" d="M 261.5,373.5 C 261.172,385.678 261.505,397.678 262.5,409.5C 262.44,410.043 262.107,410.376 261.5,410.5C 260.501,398.518 260.168,386.518 260.5,374.5C 260.5,373.833 260.833,373.5 261.5,373.5 Z"/></g>
<g><path style="opacity:1" fill="#2598d6" d="M 295.5,398.5 C 277.424,425.644 259.091,452.644 240.5,479.5C 239.833,479.5 239.167,479.5 238.5,479.5C 235.082,473.663 231.416,467.996 227.5,462.5C 228.798,460.805 230.298,459.138 232,457.5C 232.718,458.451 233.551,458.617 234.5,458C 233.446,456.612 233.28,455.112 234,453.5C 234.974,455.878 235.641,455.544 236,452.5C 236.333,452.833 236.667,453.167 237,453.5C 237.667,452.167 238.667,451.167 240,450.5C 240.333,449.167 240.667,447.833 241,446.5C 241.414,446.957 241.914,447.291 242.5,447.5C 244.451,445.378 246.785,443.878 249.5,443C 247.032,441.412 246.866,439.578 249,437.5C 252.758,438.152 255.425,436.485 257,432.5C 258.793,433.381 259.46,432.714 259,430.5C 256.31,431.459 255.976,430.792 258,428.5C 260.783,430.89 262.449,430.557 263,427.5C 263.333,427.833 263.667,428.167 264,428.5C 265.065,425.848 266.898,424.015 269.5,423C 269.384,421.732 269.051,420.398 268.5,419C 269.047,418.075 269.713,417.242 270.5,416.5C 273.922,419.29 274.589,419.123 272.5,416C 274,414.5 275.5,413 277,411.5C 277.333,412.167 277.667,412.833 278,413.5C 280.276,411.693 280.443,410.193 278.5,409C 280,407.833 281.5,406.667 283,405.5C 283.333,405.833 283.667,406.167 284,406.5C 284.49,405.207 284.657,403.873 284.5,402.5C 286.199,402.66 287.866,402.494 289.5,402C 288.833,401.667 288.167,401.333 287.5,401C 289.301,400.683 289.634,400.016 288.5,399C 289.253,397.513 290.086,397.346 291,398.5C 292.352,394.798 293.852,394.798 295.5,398.5 Z"/></g>
<g><path style="opacity:0.996" fill="#30a2b4" d="M 216.5,372.5 C 217.167,372.5 217.833,372.5 218.5,372.5C 218.667,385.504 218.5,398.504 218,411.5C 216.961,410.756 216.461,409.756 216.5,408.5C 217.82,396.598 217.82,384.598 216.5,372.5 Z"/></g>
</svg>
